<?xml version="1.0" encoding="UTF-8" standalone="no"?>
<!-- Created with Inkscape (http://www.inkscape.org/) -->

<svg
   width="100mm"
   height="100mm"
   viewBox="0 0 100 100"
   version="1.1"
   id="svg1"
   xmlns="http://www.w3.org/2000/svg"
   xmlns:svg="http://www.w3.org/2000/svg">
  <defs
     id="defs1" />
  <g
     id="layer1">
    <path
       style="font-size:122.777px;font-family:Consolas;-inkscape-font-specification:Consolas;opacity:0.922027;fill:#acff0b;stroke-width:0.368332"
       d="M 93.493205,93.647018 H 41.876507 V 84.294864 L 62.139508,64.151762 q 4.975826,-4.915876 8.09321,-8.512858 3.117385,-3.596982 4.855927,-6.534518 1.738541,-2.997485 2.338038,-5.635273 0.599497,-2.637787 0.599497,-5.695222 0,-2.877586 -0.779346,-5.455423 -0.779346,-2.637787 -2.397988,-4.616128 -1.618642,-1.97834 -4.19648,-3.117384 -2.577837,-1.139045 -6.174819,-1.139045 -4.975826,0 -9.052406,2.218139 -4.07658,2.21814 -7.493714,5.755172 l -5.755172,-6.894216 q 4.436279,-4.676077 10.191451,-7.493713 5.815121,-2.817637 13.488684,-2.817637 5.215624,0 9.472054,1.558693 4.316379,1.558692 7.433763,4.496228 3.117385,2.937535 4.795977,7.193965 1.738541,4.256429 1.738541,9.591953 0,4.496228 -1.198994,8.333009 -1.198994,3.836781 -3.656932,7.673563 -2.397988,3.776831 -6.11487,7.853411 -3.656932,4.07658 -8.692708,8.932507 l -14.20808,13.848382 h 38.068064 z"
       id="text3"
       aria-label="2" />
    <g
       id="text1"
       style="font-size:37.8922px;fill:#d45500;stroke-width:0.236826"
       aria-label="MS&#10;Shell">
      <path
         style="font-weight:bold;font-family:'DejaVu Sans';-inkscape-font-specification:'DejaVu Sans Bold';fill:#00a4ff"
         d="M 5.5286712,8.0825688 H 14.594676 L 20.885374,22.865708 27.213075,8.0825688 h 9.047503 V 35.706131 H 29.525831 V 15.501891 L 23.161126,30.396042 H 18.646625 L 12.28192,15.501891 v 20.20424 H 5.5286712 Z M 62.459482,8.9521652 v 5.8466478 q -2.275752,-1.017612 -4.440492,-1.53567 -2.16474,-0.518057 -4.088953,-0.518057 -2.553283,0 -3.774419,0.703078 -1.221135,0.703078 -1.221135,2.183242 0,1.110123 0.81409,1.739192 0.832592,0.610568 2.997332,1.054617 l 3.034337,0.610568 q 4.60701,0.925103 6.549726,2.812312 1.942715,1.887209 1.942715,5.365595 0,4.570006 -2.719801,6.808754 -2.7013,2.220246 -8.270417,2.220246 -2.627291,0 -5.273085,-0.499555 -2.645793,-0.499555 -5.291586,-1.480164 v -6.013167 q 2.645793,1.406156 5.106566,2.127736 2.479275,0.703078 4.773529,0.703078 2.331258,0 3.570896,-0.777086 1.239637,-0.777086 1.239637,-2.220246 0,-1.295144 -0.851094,-1.998222 -0.832592,-0.703077 -3.348871,-1.258139 l -2.756806,-0.610568 q -4.144459,-0.888098 -6.068673,-2.830814 -1.905711,-1.942715 -1.905711,-5.23608 0,-4.125957 2.664295,-6.3462034 2.664296,-2.2202462 7.65985,-2.2202462 2.275752,0 4.681018,0.351539 2.405267,0.3330369 4.977052,1.0176128 z"
         id="path2" />
      <path
         style="font-family:'DejaVu Sans';-inkscape-font-specification:'DejaVu Sans';fill:#00a4ff"
         d="m 22.328533,57.305876 v 3.644904 q -2.127735,-1.017612 -4.014945,-1.517168 -1.887209,-0.499555 -3.644904,-0.499555 -3.052838,0 -4.7180226,1.184131 -1.6466826,1.184131 -1.6466826,3.367373 0,1.831703 1.091621,2.775308 1.1101232,0.925103 4.1814632,1.498666 l 2.257251,0.462551 q 4.181463,0.795589 6.161183,2.812312 1.998221,1.998222 1.998221,5.365595 0,4.014945 -2.701299,6.087175 -2.682798,2.072229 -7.881874,2.072229 -1.961218,0 -4.1814636,-0.444049 -2.2017441,-0.444049 -4.5700066,-1.313645 v -3.848427 q 2.2757522,1.276642 4.4589943,1.924213 2.1832419,0.647572 4.2924759,0.647572 3.200855,0 4.940048,-1.258139 1.739192,-1.25814 1.739192,-3.589398 0,-2.035226 -1.258139,-3.182353 -1.239638,-1.147127 -4.088953,-1.720691 L 12.46694,71.330431 Q 8.2854768,70.497839 6.4167696,68.721642 4.5480625,66.945445 4.5480625,63.781594 q 0,-3.663406 2.5717851,-5.77264 2.5902871,-2.109234 7.1232894,-2.109234 1.942716,0 3.959439,0.351539 2.016724,0.351539 4.125957,1.054617 z M 46.899257,71.515452 V 84.022838 H 43.494879 V 71.626464 q 0,-2.941826 -1.147127,-4.403488 -1.147127,-1.461662 -3.441381,-1.461662 -2.756806,0 -4.347982,1.757694 -1.591177,1.757695 -1.591177,4.792032 V 84.022838 H 29.544333 V 55.233647 h 3.422879 v 11.286251 q 1.221136,-1.868707 2.867818,-2.79381 1.665185,-0.925103 3.829925,-0.925103 3.570896,0 5.402599,2.220247 1.831703,2.201744 1.831703,6.49422 z m 24.515218,1.295143 V 74.47578 H 55.76174 q 0.222025,3.515389 2.109234,5.365594 1.905711,1.831704 5.291586,1.831704 1.961218,0 3.792921,-0.481054 1.850205,-0.481053 3.663406,-1.44316 v 3.219357 q -1.831703,0.777086 -3.755916,1.184131 -1.924214,0.407045 -3.903933,0.407045 -4.95855,0 -7.863372,-2.886319 -2.88632,-2.88632 -2.88632,-7.807866 0,-5.088064 2.738304,-8.066894 2.756805,-2.997333 7.419322,-2.997333 4.181464,0 6.605232,2.7013 2.442271,2.682797 2.442271,7.30831 z m -3.404377,-0.999111 q -0.037,-2.793809 -1.572675,-4.458994 -1.517168,-1.665185 -4.033447,-1.665185 -2.849316,0 -4.570006,1.609679 -1.702189,1.609678 -1.961218,4.533002 z m 8.991996,-16.577837 h 3.404378 v 28.789191 h -3.404378 z m 10.527664,0 h 3.404378 v 28.789191 h -3.404378 z"
         id="path3" />
    </g>
  </g>
</svg>
